<svg width="49" height="49" viewBox="0 0 49 49" fill="none" xmlns="http://www.w3.org/2000/svg">
<path d="M24.5 0C10.9906 0 0 10.9906 0 24.5C0 38.0094 10.9906 49 24.5 49C38.0094 49 49 38.0094 49 24.5C49 10.9906 38.0094 0 24.5 0ZM24.5 46.1969C12.5362 46.1969 2.8031 36.4636 2.8031 24.5C2.8031 12.5364 12.5362 2.8031 24.5 2.8031C36.4638 2.8031 46.1969 12.5364 46.1969 24.5C46.1969 36.4636 36.4638 46.1969 24.5 46.1969Z" fill="white"/>
<path d="M30.1744 11.2046H26.8521C24.133 11.2046 21.9207 13.4169 21.9207 16.136V19.8735H18.8256C18.0515 19.8735 17.424 20.5009 17.424 21.275C17.424 22.0491 18.0515 22.6766 18.8256 22.6766H21.9207V35.6538C21.9207 36.4279 22.5481 37.0554 23.3222 37.0554C24.0964 37.0554 24.7238 36.4279 24.7238 35.6538V22.6766H29.5124C30.2865 22.6766 30.914 22.0491 30.914 21.275C30.914 20.5009 30.2865 19.8735 29.5124 19.8735H24.7238V16.136C24.7238 14.9624 25.6785 14.0077 26.8521 14.0077H30.1743C30.9484 14.0077 31.5758 13.3803 31.5758 12.6061C31.5758 11.832 30.9484 11.2046 30.1744 11.2046Z" fill="white"/>
</svg>
