<svg width="101" height="101" viewBox="0 0 101 101" fill="none" xmlns="http://www.w3.org/2000/svg">
<path d="M44 0.5L0 45.5V101L101 0.5H44Z" fill="#00B348"/>
<path d="M14.4669 61.6974C14.909 61.4566 15.3541 61.3628 15.8022 61.416C16.2445 61.4637 16.6531 61.6677 17.0281 62.028C17.5589 62.5378 17.769 63.139 17.6584 63.8315C17.5476 64.5127 17.1125 65.2485 16.3532 66.0389L13.3438 69.1715L7.28614 63.3522L10.1293 60.3926C10.8387 59.6541 11.5232 59.2245 12.1828 59.1038C12.8479 58.9773 13.4227 59.1468 13.9073 59.6124C14.2016 59.895 14.3948 60.2193 14.487 60.5852C14.5848 60.9454 14.5781 61.3161 14.4669 61.6974ZM9.68036 62.9731L11.1082 64.3449L12.4467 62.9516C12.7792 62.6054 12.9708 62.2848 13.0215 61.9895C13.0721 61.6943 12.9792 61.4331 12.7427 61.2058C12.5061 60.9786 12.2442 60.899 11.9571 60.967C11.6641 61.0294 11.3513 61.2337 11.0188 61.5799L9.68036 62.9731ZM15.1977 65.1285C15.5524 64.7593 15.7579 64.4241 15.8141 64.1231C15.8758 63.8164 15.7797 63.5411 15.5259 63.2972C15.024 62.815 14.4156 62.946 13.7006 63.6903L12.1294 65.3258L13.6265 66.764L15.1977 65.1285ZM23.0815 56.7834L24.2064 57.8641L19.7006 62.5544L13.643 56.7351L18.0407 52.1572L19.1657 53.238L16.1064 56.4226L17.4218 57.6862L20.1236 54.8737L21.214 55.9212L18.5121 58.7337L19.9141 60.0804L23.0815 56.7834ZM27.2939 54.858C26.8339 55.3369 26.3243 55.7403 25.7651 56.0684C25.2057 56.3852 24.6919 56.5793 24.2237 56.651L23.6252 55.1608C24.0649 55.0841 24.5143 54.9223 24.9733 54.6754C25.4323 54.4286 25.8337 54.1263 26.1773 53.7686C26.5597 53.3706 26.7847 53.0209 26.8522 52.7197C26.9139 52.4129 26.8467 52.1653 26.6505 51.9769C26.5063 51.8383 26.3326 51.7824 26.1295 51.8091C25.9261 51.8245 25.7097 51.8939 25.4802 52.0173C25.2562 52.135 24.9655 52.3106 24.6081 52.5441C24.0551 52.9003 23.5824 53.1729 23.1902 53.3618C22.7979 53.5507 22.3781 53.6355 21.9307 53.6162C21.4889 53.5911 21.0661 53.3846 20.6622 52.9966C20.3103 52.6586 20.0844 52.2585 19.9846 51.7966C19.8791 51.3291 19.9255 50.8246 20.124 50.2831C20.328 49.7359 20.6961 49.1853 21.2281 48.6315C21.5995 48.2449 22.0086 47.9114 22.4557 47.6308C22.9027 47.3503 23.3457 47.1547 23.7848 47.044L24.4336 48.4993C23.5787 48.754 22.8824 49.1612 22.3448 49.7209C21.9679 50.1132 21.7515 50.4655 21.6955 50.7778C21.6451 51.0843 21.7237 51.3374 21.9314 51.5369C22.1391 51.7364 22.3974 51.7793 22.7063 51.6656C23.015 51.5406 23.4318 51.3031 23.9566 50.9531C24.5096 50.5968 24.9822 50.3243 25.3745 50.1353C25.7668 49.9464 26.1809 49.8617 26.617 49.8813C27.0586 49.895 27.4813 50.0959 27.8852 50.4839C28.2313 50.8164 28.4544 51.2193 28.5544 51.6926C28.6542 52.1545 28.6021 52.6591 28.3981 53.2064C28.194 53.7536 27.826 54.3042 27.2939 54.858ZM26.7883 45.3379L24.9261 47.2763L23.7838 46.179L28.855 40.9002L29.9973 41.9975L28.1351 43.936L33.0505 48.658L31.7037 50.0599L26.7883 45.3379ZM40.0076 41.6239C39.5476 42.1027 39.038 42.5062 38.4787 42.8342C37.9193 43.151 37.4055 43.3452 36.9373 43.4168L36.3388 41.9266C36.7786 41.8499 37.228 41.6881 37.687 41.4413C38.146 41.1944 38.5473 40.8922 38.8909 40.5345C39.2733 40.1364 39.4983 39.7867 39.5658 39.4855C39.6275 39.1787 39.5603 38.9311 39.3642 38.7427C39.2199 38.6041 39.0463 38.5482 38.8431 38.5749C38.6397 38.5903 38.4233 38.6597 38.1938 38.7832C37.9698 38.9008 37.6791 39.0764 37.3217 39.3099C36.7687 39.6661 36.2961 39.9387 35.9038 40.1276C35.5115 40.3165 35.0917 40.4013 34.6443 40.382C34.2025 40.3569 33.7797 40.1504 33.3758 39.7625C33.0239 39.4244 32.7981 39.0244 32.6983 38.5624C32.5927 38.0949 32.6392 37.5904 32.8376 37.0489C33.0417 36.5017 33.4097 35.9511 33.9418 35.3973C34.3131 35.0107 34.7223 34.6772 35.1693 34.3966C35.6163 34.1161 36.0593 33.9205 36.4985 33.8098L37.1472 35.2651C36.2923 35.5199 35.596 35.9271 35.0584 36.4867C34.6816 36.879 34.4651 37.2313 34.4092 37.5436C34.3587 37.8501 34.4374 38.1032 34.6451 38.3027C34.8528 38.5022 35.1111 38.5451 35.42 38.4314C35.7286 38.3064 36.1454 38.0689 36.6702 37.7189C37.2232 37.3627 37.6959 37.0901 38.0881 36.9012C38.4804 36.7122 38.8946 36.6275 39.3306 36.6471C39.7722 36.6609 40.1949 36.8617 40.5988 37.2497C40.9449 37.5822 41.168 37.9851 41.268 38.4584C41.3678 38.9203 41.3157 39.4249 41.1117 39.9722C40.9077 40.5195 40.5396 41.07 40.0076 41.6239ZM46.6739 32.2249L47.7989 33.3057L43.2931 37.996L37.2354 32.1766L41.6332 27.5988L42.7582 28.6795L39.6989 31.8641L41.0142 33.1277L43.7161 30.3153L44.8065 31.3628L42.1046 34.1752L43.5065 35.522L46.6739 32.2249ZM42.8129 26.3708L44.1596 24.9689L49.075 29.6909L51.993 26.6534L53.1353 27.7508L48.8705 32.1902L42.8129 26.3708ZM47.8301 21.1481L49.1769 19.7462L54.0922 24.4682L57.0102 21.4308L58.1525 22.5281L53.8877 26.9675L47.8301 21.1481ZM62.2859 15.9737L63.4109 17.0545L58.905 21.7448L52.8474 15.9255L57.2451 11.3476L58.3701 12.4284L55.3108 15.6129L56.6262 16.8766L59.328 14.0641L60.4184 15.1116L57.7166 17.9241L59.1185 19.2708L62.2859 15.9737ZM68.1902 12.0794L65.3804 11.6266L65.3139 11.6958L64.1417 12.916L65.8292 14.5371L64.4824 15.939L58.4248 10.1197L60.9437 7.49757C61.4592 6.96103 61.9948 6.58252 62.5505 6.36203C63.1117 6.13576 63.6593 6.07386 64.1932 6.1763C64.7271 6.27875 65.2191 6.54613 65.6691 6.97842C66.1191 7.41072 66.4032 7.89443 66.5214 8.42957C66.6394 8.9534 66.5938 9.49748 66.3844 10.0618L69.6367 10.5737L68.1902 12.0794ZM64.3057 8.39764C63.9653 8.07065 63.6004 7.93086 63.2109 7.97828C62.8157 8.02016 62.4158 8.25167 62.0112 8.67282L60.9139 9.81512L63.0254 11.8436L64.1227 10.7013C64.5273 10.2801 64.7426 9.87127 64.7686 9.47469C64.7946 9.07811 64.6403 8.71909 64.3057 8.39764Z" fill="white"/>
</svg>
