<svg width="512" height="512" viewBox="0 0 512 512" fill="none" xmlns="http://www.w3.org/2000/svg">
<path d="M448 96.0498V253.55C448 307.35 404.4 351.05 350.9 351.05H207.1L136.7 411.55C143.9 414.35 151.8 415.95 160 415.95H314.1L421.6 508.15C424.6 510.65 428.3 511.95 432 511.95C434.3 511.95 436.6 511.45 438.7 510.45C444.4 507.85 448 502.15 448 495.95V415.95C483.3 415.95 512 387.25 512 351.95V160.05C512 124.75 483.3 96.0498 448 96.0498Z" fill="white"/>
<path d="M352 0.0500488H64C28.7 0.0500488 0 28.75 0 64.05V256.05C0 291.35 28.7 320.05 64 320.05V400.05C64 406.25 67.6 411.95 73.3 414.55C75.4 415.55 77.7 416.05 80 416.05C83.7 416.05 87.5 414.75 90.4 412.25L197.9 320.05H352C387.3 320.05 416 291.35 416 256.05V64.05C416 28.75 387.3 0.0500488 352 0.0500488Z" fill="white"/>
</svg>
