<svg width="77" height="13" viewBox="0 0 77 13" fill="none" xmlns="http://www.w3.org/2000/svg">
<path d="M12.966 4.98622C12.8804 4.72298 12.6469 4.53662 12.3718 4.51172L8.61908 4.17102L7.13598 0.698798C7.02649 0.443698 6.77734 0.279053 6.50002 0.279053C6.2227 0.279053 5.97345 0.443698 5.86465 0.698798L4.38155 4.17102L0.628238 4.51172C0.353102 4.53711 0.120119 4.72348 0.0340279 4.98622C-0.0515677 5.24945 0.0274818 5.53817 0.235569 5.72067L3.07233 8.2081L2.23591 11.892C2.17471 12.1629 2.27985 12.443 2.5046 12.6054C2.6254 12.6932 2.76734 12.737 2.90976 12.737C3.03216 12.737 3.15465 12.7045 3.26405 12.639L6.50002 10.7042L9.73539 12.639C9.97274 12.7809 10.2712 12.7679 10.4954 12.6054C10.7202 12.443 10.8253 12.1629 10.7641 11.892L9.92771 8.2081L12.7645 5.72067C12.9725 5.53817 13.0516 5.25004 12.966 4.98622V4.98622Z" fill="#008FEE"/>
<path d="M44.966 4.70716C44.8804 4.44393 44.6469 4.25756 44.3718 4.23267L40.6191 3.89197L39.136 0.419746C39.0265 0.164645 38.7773 0 38.5 0C38.2227 0 37.9735 0.164645 37.8646 0.419746L36.3816 3.89197L32.6282 4.23267C32.3531 4.25806 32.1201 4.44442 32.034 4.70716C31.9484 4.9704 32.0275 5.25912 32.2356 5.44162L35.0723 7.92905L34.2359 11.6129C34.1747 11.8838 34.2798 12.1639 34.5046 12.3264C34.6254 12.4141 34.7673 12.458 34.9098 12.458C35.0322 12.458 35.1546 12.4254 35.264 12.36L38.5 10.4251L41.7354 12.36C41.9727 12.5018 42.2712 12.4888 42.4954 12.3264C42.7202 12.1639 42.8253 11.8838 42.7641 11.6129L41.9277 7.92905L44.7645 5.44162C44.9725 5.25912 45.0516 4.97099 44.966 4.70716V4.70716Z" fill="#008FEE"/>
<path d="M60.966 4.70716C60.8804 4.44393 60.6469 4.25756 60.3718 4.23267L56.6191 3.89197L55.136 0.419746C55.0265 0.164645 54.7773 0 54.5 0C54.2227 0 53.9735 0.164645 53.8646 0.419746L52.3816 3.89197L48.6282 4.23267C48.3531 4.25806 48.1201 4.44442 48.034 4.70716C47.9484 4.9704 48.0275 5.25912 48.2356 5.44162L51.0723 7.92905L50.2359 11.6129C50.1747 11.8838 50.2798 12.1639 50.5046 12.3264C50.6254 12.4141 50.7673 12.458 50.9098 12.458C51.0322 12.458 51.1546 12.4254 51.264 12.36L54.5 10.4251L57.7354 12.36C57.9727 12.5018 58.2712 12.4888 58.4954 12.3264C58.7202 12.1639 58.8253 11.8838 58.7641 11.6129L57.9277 7.92905L60.7645 5.44162C60.9725 5.25912 61.0516 4.97099 60.966 4.70716V4.70716Z" fill="#008FEE"/>
<path d="M28.966 4.98622C28.8804 4.72298 28.6469 4.53662 28.3718 4.51172L24.6191 4.17102L23.136 0.698798C23.0265 0.443698 22.7773 0.279053 22.5 0.279053C22.2227 0.279053 21.9735 0.443698 21.8646 0.698798L20.3816 4.17102L16.6282 4.51172C16.3531 4.53711 16.1201 4.72348 16.034 4.98622C15.9484 5.24945 16.0275 5.53817 16.2356 5.72067L19.0723 8.2081L18.2359 11.892C18.1747 12.1629 18.2798 12.443 18.5046 12.6054C18.6254 12.6932 18.7673 12.737 18.9098 12.737C19.0322 12.737 19.1546 12.7045 19.264 12.639L22.5 10.7042L25.7354 12.639C25.9727 12.7809 26.2712 12.7679 26.4954 12.6054C26.7202 12.443 26.8253 12.1629 26.7641 11.892L25.9277 8.2081L28.7645 5.72067C28.9725 5.53817 29.0516 5.25004 28.966 4.98622V4.98622Z" fill="#008FEE"/>
<path d="M76.966 4.70716C76.8804 4.44393 76.6469 4.25756 76.3718 4.23267L72.6191 3.89197L71.136 0.419746C71.0265 0.164645 70.7773 0 70.5 0C70.2227 0 69.9735 0.164645 69.8646 0.419746L68.3816 3.89197L64.6282 4.23267C64.3531 4.25806 64.1201 4.44442 64.034 4.70716C63.9484 4.9704 64.0275 5.25912 64.2356 5.44162L67.0723 7.92905L66.2359 11.6129C66.1747 11.8838 66.2798 12.1639 66.5046 12.3264C66.6254 12.4141 66.7673 12.458 66.9098 12.458C67.0322 12.458 67.1546 12.4254 67.264 12.36L70.5 10.4251L73.7354 12.36C73.9727 12.5018 74.2712 12.4888 74.4954 12.3264C74.7202 12.1639 74.8253 11.8838 74.7641 11.6129L73.9277 7.92905L76.7645 5.44162C76.9725 5.25912 77.0516 4.97099 76.966 4.70716V4.70716Z" fill="#008FEE"/>
</svg>
