<svg width="512" height="512" viewBox="0 0 512 512" fill="none" xmlns="http://www.w3.org/2000/svg">
<path d="M257 0C116.39 0 0 114.39 0 255C0 395.61 116.39 512 257 512C397.61 512 512 395.61 512 255C512 114.39 397.61 0 257 0ZM413.21 180L246.39 347.89C234.64 359.64 213.66 359.59 201.95 347.89L106.5 252.42C94.77 240.69 94.77 221.73 106.5 210C117.62 198.89 137.83 198.89 148.94 210L225.18 284.24L370.79 137.58C381.89 126.44 402.05 126.41 413.22 137.58C424.73 149.09 425.11 168.1 413.21 180Z" fill="#00B348"/>
</svg>
